<svg xmlns="http://www.w3.org/2000/svg" width="1200" height="630" viewBox="0 0 1200 630" role="img" aria-labelledby="title desc">
  <title id="title">Tesla revenue growth dashboard</title>
  <desc id="desc">Dark Tesla revenue dashboard preview with automotive, energy, Robotaxi, and Optimus segments.</desc>
  <rect width="1200" height="630" fill="#0a0a0f"/>
  <rect x="72" y="68" width="1056" height="494" rx="28" fill="#111118" stroke="rgba(255,255,255,0.14)" stroke-width="2"/>
  <rect x="72" y="68" width="1056" height="8" rx="4" fill="#e8ff47"/>
  <text x="112" y="156" fill="#e8ff47" font-family="Arial, Helvetica, sans-serif" font-size="26" font-weight="700" letter-spacing="5">TSLA MODEL</text>
  <text x="112" y="248" fill="#f0eff8" font-family="Arial, Helvetica, sans-serif" font-size="78" font-weight="800">Tesla Revenue</text>
  <text x="112" y="332" fill="#e8ff47" font-family="Arial, Helvetica, sans-serif" font-size="78" font-weight="800">Growth Dashboard</text>
  <text x="116" y="394" fill="#9898b0" font-family="Arial, Helvetica, sans-serif" font-size="28">Automotive, Energy, Services, Robotaxi, and Optimus assumptions.</text>
  <g transform="translate(116 452)">
    <rect width="190" height="72" rx="14" fill="#18181f" stroke="rgba(255,255,255,0.12)"/>
    <text x="24" y="30" fill="#5a5a72" font-family="Arial, Helvetica, sans-serif" font-size="15" letter-spacing="2">WINDOW</text>
    <text x="24" y="56" fill="#f0eff8" font-family="Arial, Helvetica, sans-serif" font-size="26" font-weight="700">2020-2029</text>
  </g>
  <g transform="translate(344 452)">
    <rect width="190" height="72" rx="14" fill="#18181f" stroke="rgba(255,255,255,0.12)"/>
    <text x="24" y="30" fill="#5a5a72" font-family="Arial, Helvetica, sans-serif" font-size="15" letter-spacing="2">MODE</text>
    <text x="24" y="56" fill="#f0eff8" font-family="Arial, Helvetica, sans-serif" font-size="26" font-weight="700">Interactive</text>
  </g>
  <g transform="translate(810 138)">
    <rect x="0" y="210" width="48" height="106" rx="8" fill="#4da3ff"/>
    <rect x="70" y="168" width="48" height="148" rx="8" fill="#3ddea0"/>
    <rect x="140" y="122" width="48" height="194" rx="8" fill="#ffb347"/>
    <rect x="210" y="74" width="48" height="242" rx="8" fill="#ff6b9d"/>
    <rect x="280" y="28" width="48" height="288" rx="8" fill="#a78bfa"/>
    <path d="M0 326H348" stroke="#5a5a72" stroke-width="2"/>
  </g>
</svg>
